<?xml version="1.0" standalone="yes"?>

<svg version="1.1" viewBox="0.0 0.0 960.0 720.0" fill="none" stroke="none" stroke-linecap="square" stroke-miterlimit="10" xmlns="http://www.w3.org/2000/svg" xmlns:xlink="http://www.w3.org/1999/xlink"><clipPath id="p.0"><path d="m0 0l960.0 0l0 720.0l-960.0 0l0 -720.0z" clip-rule="nonzero"></path></clipPath><g clip-path="url(#p.0)"><path fill="#000000" fill-opacity="0.0" d="m0 0l960.0 0l0 720.0l-960.0 0z" fill-rule="nonzero"></path><path fill="#ffffff" d="m12.68941 128.4259l75.64066 0l0 84.64276l-75.64066 0z" fill-rule="nonzero"></path><path stroke="#000000" stroke-width="2.0" stroke-linejoin="round" stroke-linecap="butt" d="m12.68941 128.4259l75.64066 0l0 84.64276l-75.64066 0z" fill-rule="nonzero"></path><path fill="#ffffff" d="m88.33008 128.4259l75.640656 0l0 84.64276l-75.640656 0z" fill-rule="nonzero"></path><path stroke="#000000" stroke-width="2.0" stroke-linejoin="round" stroke-linecap="butt" d="m88.33008 128.4259l75.640656 0l0 84.64276l-75.640656 0z" fill-rule="nonzero"></path><path fill="#ffffff" d="m163.97073 128.4259l75.64067 0l0 84.64276l-75.64067 0z" fill-rule="nonzero"></path><path stroke="#000000" stroke-width="2.0" stroke-linejoin="round" stroke-linecap="butt" d="m163.97073 128.4259l75.64067 0l0 84.64276l-75.64067 0z" fill-rule="nonzero"></path><path fill="#ffffff" d="m239.6114 128.4259l75.64067 0l0 84.64276l-75.64067 0z" fill-rule="nonzero"></path><path stroke="#000000" stroke-width="2.0" stroke-linejoin="round" stroke-linecap="butt" d="m239.6114 128.4259l75.64067 0l0 84.64276l-75.64067 0z" fill-rule="nonzero"></path><path fill="#ffffff" d="m315.25208 128.4259l75.640656 0l0 84.64276l-75.640656 0z" fill-rule="nonzero"></path><path stroke="#000000" stroke-width="2.0" stroke-linejoin="round" stroke-linecap="butt" d="m315.25208 128.4259l75.640656 0l0 84.64276l-75.640656 0z" fill-rule="nonzero"></path><path fill="#ffffff" d="m12.68941 213.06866l75.64066 0l0 84.64276l-75.64066 0z" fill-rule="nonzero"></path><path stroke="#000000" stroke-width="2.0" stroke-linejoin="round" stroke-linecap="butt" d="m12.68941 213.06866l75.64066 0l0 84.64276l-75.64066 0z" fill-rule="nonzero"></path><path fill="#ffffff" d="m88.33008 213.06866l75.640656 0l0 84.64276l-75.640656 0z" fill-rule="nonzero"></path><path stroke="#000000" stroke-width="2.0" stroke-linejoin="round" stroke-linecap="butt" d="m88.33008 213.06866l75.640656 0l0 84.64276l-75.640656 0z" fill-rule="nonzero"></path><path fill="#ffffff" d="m163.97073 213.06866l75.64067 0l0 84.64276l-75.64067 0z" fill-rule="nonzero"></path><path stroke="#000000" stroke-width="2.0" stroke-linejoin="round" stroke-linecap="butt" d="m163.97073 213.06866l75.64067 0l0 84.64276l-75.64067 0z" fill-rule="nonzero"></path><path fill="#ffffff" d="m239.6114 213.06866l75.64067 0l0 84.64276l-75.64067 0z" fill-rule="nonzero"></path><path stroke="#000000" stroke-width="2.0" stroke-linejoin="round" stroke-linecap="butt" d="m239.6114 213.06866l75.64067 0l0 84.64276l-75.64067 0z" fill-rule="nonzero"></path><path fill="#ffffff" d="m315.25208 213.06866l75.640656 0l0 84.64276l-75.640656 0z" fill-rule="nonzero"></path><path stroke="#000000" stroke-width="2.0" stroke-linejoin="round" stroke-linecap="butt" d="m315.25208 213.06866l75.640656 0l0 84.64276l-75.640656 0z" fill-rule="nonzero"></path><path fill="#ffffff" d="m12.68941 297.71143l75.64066 0l0 84.64273l-75.64066 0z" fill-rule="nonzero"></path><path stroke="#000000" stroke-width="2.0" stroke-linejoin="round" stroke-linecap="butt" d="m12.68941 297.71143l75.64066 0l0 84.64273l-75.64066 0z" fill-rule="nonzero"></path><path fill="#ffffff" d="m88.33008 297.71143l75.640656 0l0 84.64273l-75.640656 0z" fill-rule="nonzero"></path><path stroke="#000000" stroke-width="2.0" stroke-linejoin="round" stroke-linecap="butt" d="m88.33008 297.71143l75.640656 0l0 84.64273l-75.640656 0z" fill-rule="nonzero"></path><path fill="#ffffff" d="m163.97073 297.71143l75.64067 0l0 84.64273l-75.64067 0z" fill-rule="nonzero"></path><path stroke="#000000" stroke-width="2.0" stroke-linejoin="round" stroke-linecap="butt" d="m163.97073 297.71143l75.64067 0l0 84.64273l-75.64067 0z" fill-rule="nonzero"></path><path fill="#ffffff" d="m239.6114 297.71143l75.64067 0l0 84.64273l-75.64067 0z" fill-rule="nonzero"></path><path stroke="#000000" stroke-width="2.0" stroke-linejoin="round" stroke-linecap="butt" d="m239.6114 297.71143l75.64067 0l0 84.64273l-75.64067 0z" fill-rule="nonzero"></path><path fill="#ffffff" d="m315.25208 297.71143l75.640656 0l0 84.64273l-75.640656 0z" fill-rule="nonzero"></path><path stroke="#000000" stroke-width="2.0" stroke-linejoin="round" stroke-linecap="butt" d="m315.25208 297.71143l75.640656 0l0 84.64273l-75.640656 0z" fill-rule="nonzero"></path><path fill="#ffffff" d="m12.68941 382.35416l75.64066 0l0 84.64276l-75.64066 0z" fill-rule="nonzero"></path><path stroke="#000000" stroke-width="2.0" stroke-linejoin="round" stroke-linecap="butt" d="m12.68941 382.35416l75.64066 0l0 84.64276l-75.64066 0z" fill-rule="nonzero"></path><path fill="#ffffff" d="m88.33008 382.35416l75.640656 0l0 84.64276l-75.640656 0z" fill-rule="nonzero"></path><path stroke="#000000" stroke-width="2.0" stroke-linejoin="round" stroke-linecap="butt" d="m88.33008 382.35416l75.640656 0l0 84.64276l-75.640656 0z" fill-rule="nonzero"></path><path fill="#ffffff" d="m163.97073 382.35416l75.64067 0l0 84.64276l-75.64067 0z" fill-rule="nonzero"></path><path stroke="#000000" stroke-width="2.0" stroke-linejoin="round" stroke-linecap="butt" d="m163.97073 382.35416l75.64067 0l0 84.64276l-75.64067 0z" fill-rule="nonzero"></path><path fill="#ffffff" d="m239.6114 382.35416l75.64067 0l0 84.64276l-75.64067 0z" fill-rule="nonzero"></path><path stroke="#000000" stroke-width="2.0" stroke-linejoin="round" stroke-linecap="butt" d="m239.6114 382.35416l75.64067 0l0 84.64276l-75.64067 0z" fill-rule="nonzero"></path><path fill="#ffffff" d="m315.25208 382.35416l75.640656 0l0 84.64276l-75.640656 0z" fill-rule="nonzero"></path><path stroke="#000000" stroke-width="2.0" stroke-linejoin="round" stroke-linecap="butt" d="m315.25208 382.35416l75.640656 0l0 84.64276l-75.640656 0z" fill-rule="nonzero"></path><path fill="#ffffff" d="m12.68941 466.99692l75.64066 0l0 84.64279l-75.64066 0z" fill-rule="nonzero"></path><path stroke="#000000" stroke-width="2.0" stroke-linejoin="round" stroke-linecap="butt" d="m12.68941 466.99692l75.64066 0l0 84.64279l-75.64066 0z" fill-rule="nonzero"></path><path fill="#ffffff" d="m88.33008 466.99692l75.640656 0l0 84.64279l-75.640656 0z" fill-rule="nonzero"></path><path stroke="#000000" stroke-width="2.0" stroke-linejoin="round" stroke-linecap="butt" d="m88.33008 466.99692l75.640656 0l0 84.64279l-75.640656 0z" fill-rule="nonzero"></path><path fill="#ffffff" d="m163.97073 466.99692l75.64067 0l0 84.64279l-75.64067 0z" fill-rule="nonzero"></path><path stroke="#000000" stroke-width="2.0" stroke-linejoin="round" stroke-linecap="butt" d="m163.97073 466.99692l75.64067 0l0 84.64279l-75.64067 0z" fill-rule="nonzero"></path><path fill="#ffffff" d="m239.6114 466.99692l75.64067 0l0 84.64279l-75.64067 0z" fill-rule="nonzero"></path><path stroke="#000000" stroke-width="2.0" stroke-linejoin="round" stroke-linecap="butt" d="m239.6114 466.99692l75.64067 0l0 84.64279l-75.64067 0z" fill-rule="nonzero"></path><path fill="#ffffff" d="m315.25208 466.99692l75.640656 0l0 84.64279l-75.640656 0z" fill-rule="nonzero"></path><path stroke="#000000" stroke-width="2.0" stroke-linejoin="round" stroke-linecap="butt" d="m315.25208 466.99692l75.640656 0l0 84.64279l-75.640656 0z" fill-rule="nonzero"></path><path fill="#ffffff" d="m12.68941 551.6397l75.64066 0l0 84.64276l-75.64066 0z" fill-rule="nonzero"></path><path stroke="#000000" stroke-width="2.0" stroke-linejoin="round" stroke-linecap="butt" d="m12.68941 551.6397l75.64066 0l0 84.64276l-75.64066 0z" fill-rule="nonzero"></path><path fill="#ffffff" d="m88.33008 551.6397l75.640656 0l0 84.64276l-75.640656 0z" fill-rule="nonzero"></path><path stroke="#000000" stroke-width="2.0" stroke-linejoin="round" stroke-linecap="butt" d="m88.33008 551.6397l75.640656 0l0 84.64276l-75.640656 0z" fill-rule="nonzero"></path><path fill="#ffffff" d="m163.97073 551.6397l75.64067 0l0 84.64276l-75.64067 0z" fill-rule="nonzero"></path><path stroke="#000000" stroke-width="2.0" stroke-linejoin="round" stroke-linecap="butt" d="m163.97073 551.6397l75.64067 0l0 84.64276l-75.64067 0z" fill-rule="nonzero"></path><path fill="#ffffff" d="m239.6114 551.6397l75.64067 0l0 84.64276l-75.64067 0z" fill-rule="nonzero"></path><path stroke="#000000" stroke-width="2.0" stroke-linejoin="round" stroke-linecap="butt" d="m239.6114 551.6397l75.64067 0l0 84.64276l-75.64067 0z" fill-rule="nonzero"></path><path fill="#ffffff" d="m315.25208 551.6397l75.640656 0l0 84.64276l-75.640656 0z" fill-rule="nonzero"></path><path stroke="#000000" stroke-width="2.0" stroke-linejoin="round" stroke-linecap="butt" d="m315.25208 551.6397l75.640656 0l0 84.64276l-75.640656 0z" fill-rule="nonzero"></path><path fill="#ffffff" d="m452.0361 128.4259l75.640656 0l0 84.64276l-75.640656 0z" fill-rule="nonzero"></path><path stroke="#000000" stroke-width="2.0" stroke-linejoin="round" stroke-linecap="butt" d="m452.0361 128.4259l75.640656 0l0 84.64276l-75.640656 0z" fill-rule="nonzero"></path><path fill="#ffffff" d="m452.0361 213.06866l75.640656 0l0 84.64276l-75.640656 0z" fill-rule="nonzero"></path><path stroke="#000000" stroke-width="2.0" stroke-linejoin="round" stroke-linecap="butt" d="m452.0361 213.06866l75.640656 0l0 84.64276l-75.640656 0z" fill-rule="nonzero"></path><path fill="#ffffff" d="m452.0361 297.71143l75.640656 0l0 84.64273l-75.640656 0z" fill-rule="nonzero"></path><path stroke="#000000" stroke-width="2.0" stroke-linejoin="round" stroke-linecap="butt" d="m452.0361 297.71143l75.640656 0l0 84.64273l-75.640656 0z" fill-rule="nonzero"></path><path fill="#ffffff" d="m452.0361 382.35416l75.640656 0l0 84.64276l-75.640656 0z" fill-rule="nonzero"></path><path stroke="#000000" stroke-width="2.0" stroke-linejoin="round" stroke-linecap="butt" d="m452.0361 382.35416l75.640656 0l0 84.64276l-75.640656 0z" fill-rule="nonzero"></path><path fill="#ffffff" d="m452.0361 466.99692l75.640656 0l0 84.64279l-75.640656 0z" fill-rule="nonzero"></path><path stroke="#000000" stroke-width="2.0" stroke-linejoin="round" stroke-linecap="butt" d="m452.0361 466.99692l75.640656 0l0 84.64279l-75.640656 0z" fill-rule="nonzero"></path><path fill="#ffffff" d="m452.0361 551.6397l75.640656 0l0 84.64276l-75.640656 0z" fill-rule="nonzero"></path><path stroke="#000000" stroke-width="2.0" stroke-linejoin="round" stroke-linecap="butt" d="m452.0361 551.6397l75.640656 0l0 84.64276l-75.640656 0z" fill-rule="nonzero"></path><path fill="#ffffff" d="m452.0777 10.085992l75.640686 0l0 84.64275l-75.640686 0z" fill-rule="nonzero"></path><path stroke="#000000" stroke-width="2.0" stroke-linejoin="round" stroke-linecap="butt" d="m452.0777 10.085992l75.640686 0l0 84.64275l-75.640686 0z" fill-rule="nonzero"></path><path fill="#ffffff" d="m527.7184 10.085992l75.640625 0l0 84.64275l-75.640625 0z" fill-rule="nonzero"></path><path stroke="#000000" stroke-width="2.0" stroke-linejoin="round" stroke-linecap="butt" d="m527.7184 10.085992l75.640625 0l0 84.64275l-75.640625 0z" fill-rule="nonzero"></path><path fill="#ffffff" d="m678.9997 10.085992l75.640686 0l0 84.64275l-75.640686 0z" fill-rule="nonzero"></path><path stroke="#000000" stroke-width="2.0" stroke-linejoin="round" stroke-linecap="butt" d="m678.9997 10.085992l75.640686 0l0 84.64275l-75.640686 0z" fill-rule="nonzero"></path><path fill="#ffffff" d="m754.6404 10.085992l75.640625 0l0 84.64275l-75.640625 0z" fill-rule="nonzero"></path><path stroke="#000000" stroke-width="2.0" stroke-linejoin="round" stroke-linecap="butt" d="m754.6404 10.085992l75.640625 0l0 84.64275l-75.640625 0z" fill-rule="nonzero"></path><path fill="#ffffff" d="m603.359 10.085992l75.640686 0l0 84.64275l-75.640686 0z" fill-rule="nonzero"></path><path stroke="#000000" stroke-width="2.0" stroke-linejoin="round" stroke-linecap="butt" d="m603.359 10.085992l75.640686 0l0 84.64275l-75.640686 0z" fill-rule="nonzero"></path><path fill="#000000" fill-opacity="0.0" d="m117.908455 51.149044l181.82678 0l0 63.87402l-181.82678 0z" fill-rule="nonzero"></path><path fill="#000000" d="m147.46246 96.3048l0 -28.640625l10.796875 0q2.84375 0 4.359375 0.28125q2.109375 0.34375 3.53125 1.34375q1.421875 0.984375 2.28125 2.765625q0.875 1.765625 0.875 3.890625q0 3.65625 -2.328125 6.1875q-2.3125 2.53125 -8.390625 2.53125l-7.34375 0l0 11.640625l-3.78125 0zm3.78125 -15.015625l7.40625 0q3.671875 0 5.203125 -1.359375q1.546875 -1.375 1.546875 -3.859375q0 -1.796875 -0.90625 -3.078125q-0.90625 -1.28125 -2.390625 -1.6875q-0.953125 -0.25 -3.53125 -0.25l-7.328125 0l0 10.234375zm29.164062 23.4375q-2.90625 -3.671875 -4.921875 -8.59375q-2.015625 -4.921875 -2.015625 -10.203125q0 -4.640625 1.5 -8.90625q1.765625 -4.9375 5.4375 -9.84375l2.515625 0q-2.359375 4.0625 -3.125 5.796875q-1.1875 2.703125 -1.875 5.625q-0.84375 3.65625 -0.84375 7.34375q0 9.40625 5.84375 18.78125l-2.515625 0zm4.1328125 -8.421875l11.078125 -14.921875l-9.765625 -13.71875l4.515625 0l5.1875 7.34375q1.625 2.296875 2.3125 3.515625q0.953125 -1.5625 2.265625 -3.25l5.765625 -7.609375l4.109375 0l-10.046875 13.5l10.828125 15.140625l-4.6875 0l-7.203125 -10.21875q-0.609375 -0.875 -1.25 -1.90625q-0.953125 1.5625 -1.359375 2.140625l-7.1875 9.984375l-4.5625 0zm30.070312 0l0 -4.0l4.0 0l0 4.0q0 2.203125 -0.78125 3.5625q-0.78125 1.359375 -2.484375 2.109375l-0.96875 -1.515625q1.109375 -0.484375 1.625 -1.4375q0.53125 -0.9375 0.59375 -2.71875l-1.984375 0zm29.820312 0l0 -12.125l-11.03125 -16.515625l4.609375 0l5.640625 8.640625q1.5625 2.421875 2.90625 4.84375q1.296875 -2.25 3.125 -5.0625l5.546875 -8.421875l4.421875 0l-11.4375 16.515625l0 12.125l-3.78125 0zm20.460938 8.421875l-2.515625 0q5.84375 -9.375 5.84375 -18.78125q0 -3.671875 -0.84375 -7.28125q-0.65625 -2.921875 -1.859375 -5.625q-0.75 -1.75 -3.140625 -5.859375l2.515625 0q3.671875 4.90625 5.4375 9.84375q1.5 4.265625 1.5 8.90625q0 5.28125 -2.03125 10.203125q-2.015625 4.921875 -4.90625 8.59375z" fill-rule="nonzero"></path><path fill="#000000" fill-opacity="0.0" d="m841.3543 25.011475l118.64569 0l0 66.77165l-118.64569 0z" fill-rule="nonzero"></path><path fill="#000000" d="m863.77094 71.61605l0 -28.640625l10.796875 0q2.84375 0 4.359375 0.28125q2.109375 0.34375 3.53125 1.34375q1.421875 0.984375 2.28125 2.765625q0.875 1.765625 0.875 3.890625q0 3.65625 -2.328125 6.1875q-2.3125 2.53125 -8.390625 2.53125l-7.34375 0l0 11.640625l-3.78125 0zm3.78125 -15.015625l7.40625 0q3.671875 0 5.203125 -1.359375q1.546875 -1.375 1.546875 -3.859375q0 -1.796875 -0.90625 -3.078125q-0.90625 -1.28125 -2.390625 -1.6875q-0.953125 -0.25 -3.53125 -0.25l-7.328125 0l0 10.234375zm29.164062 23.4375q-2.90625 -3.671875 -4.921875 -8.59375q-2.015625 -4.921875 -2.015625 -10.203125q0 -4.640625 1.5 -8.90625q1.765625 -4.9375 5.4375 -9.84375l2.515625 0q-2.359375 4.0625 -3.125 5.796875q-1.1875 2.703125 -1.875 5.625q-0.84375 3.65625 -0.84375 7.34375q0 9.40625 5.84375 18.78125l-2.515625 0zm15.1171875 -8.421875l0 -12.125l-11.03125 -16.515625l4.609375 0l5.640625 8.640625q1.5625 2.421875 2.90625 4.84375q1.296875 -2.25 3.125 -5.0625l5.546875 -8.421875l4.421875 0l-11.4375 16.515625l0 12.125l-3.78125 0zm20.460938 8.421875l-2.515625 0q5.84375 -9.375 5.84375 -18.78125q0 -3.671875 -0.84375 -7.28125q-0.65625 -2.921875 -1.859375 -5.625q-0.75 -1.75 -3.140625 -5.859375l2.515625 0q3.671875 4.90625 5.4375 9.84375q1.5 4.265625 1.5 8.90625q0 5.28125 -2.03125 10.203125q-2.015625 4.921875 -4.90625 8.59375z" fill-rule="nonzero"></path><path fill="#000000" fill-opacity="0.0" d="m430.53076 643.14233l118.64569 0l0 66.77167l-118.64569 0z" fill-rule="nonzero"></path><path fill="#000000" d="m452.94736 689.74695l0 -28.640625l10.796875 0q2.84375 0 4.359375 0.28125q2.109375 0.34375 3.53125 1.34375q1.421875 0.984375 2.28125 2.765625q0.875 1.765625 0.875 3.890625q0 3.65625 -2.328125 6.1875q-2.3125 2.53125 -8.390625 2.53125l-7.34375 0l0 11.640625l-3.78125 0zm3.78125 -15.015625l7.40625 0q3.671875 0 5.203125 -1.359375q1.546875 -1.375 1.546875 -3.859375q0 -1.796875 -0.90625 -3.078125q-0.90625 -1.28125 -2.390625 -1.6875q-0.953125 -0.25 -3.53125 -0.25l-7.328125 0l0 10.234375zm29.164062 23.4375q-2.90625 -3.671875 -4.921875 -8.59375q-2.015625 -4.921875 -2.015625 -10.203125q0 -4.640625 1.5 -8.90625q1.765625 -4.9375 5.4375 -9.84375l2.515625 0q-2.359375 4.0625 -3.125 5.796875q-1.1875 2.703125 -1.875 5.625q-0.84375 3.65625 -0.84375 7.34375q0 9.40625 5.84375 18.78125l-2.515625 0zm4.1328125 -8.421875l11.078125 -14.921875l-9.765625 -13.71875l4.515625 0l5.1875 7.34375q1.625 2.296875 2.3125 3.515625q0.953125 -1.5625 2.265625 -3.25l5.765625 -7.609375l4.1093445 0l-10.0468445 13.5l10.8280945 15.140625l-4.6874695 0l-7.203125 -10.21875q-0.609375 -0.875 -1.25 -1.90625q-0.953125 1.5625 -1.359375 2.140625l-7.1875 9.984375l-4.5625 0zm31.445282 8.421875l-2.515625 0q5.84375 -9.375 5.84375 -18.78125q0 -3.671875 -0.84375 -7.28125q-0.65625 -2.921875 -1.859375 -5.625q-0.75 -1.75 -3.140625 -5.859375l2.515625 0q3.671875 4.90625 5.4375 9.84375q1.5 4.265625 1.5 8.90625q0 5.28125 -2.03125 10.203125q-2.015625 4.921875 -4.90625 8.59375z" fill-rule="nonzero"></path><path fill="#000000" fill-opacity="0.0" d="m400.3235 354.61487l47.716553 0l0 72.59842l-47.716553 0z" fill-rule="nonzero"></path><path fill="#000000" d="m435.5255 386.56253l-22.6875 0l0 -3.9375l22.6875 0l0 3.9375zm0 10.421875l-22.6875 0l0 -3.9375l22.6875 0l0 3.9375z" fill-rule="nonzero"></path></g></svg>

